<svg version="1.1" id="Layer_1" xmlns="http://www.w3.org/2000/svg" xmlns:xlink="http://www.w3.org/1999/xlink" x="0px" y="0px"
	 width="100%" viewBox="0 0 1592 198" enable-background="new 0 0 1592 198" xml:space="preserve">
<path fill="#F7F7F7" opacity="1.000000" stroke="none" 
	d="
M1593.000000,116.000015 
	C1593.000000,143.660019 1593.000000,171.320023 1593.000000,198.951385 
	C1062.333374,198.951385 531.666687,198.951385 1.000000,198.951385 
	C1.000000,171.576019 1.000000,144.249268 1.370423,116.482903 
	C30.299170,127.734772 58.857491,139.426239 88.012985,151.362183 
	C88.012985,147.124878 87.557991,143.437500 88.116066,139.910431 
	C89.029449,134.137802 86.321037,131.915314 81.303253,129.968689 
	C62.871677,122.818230 44.629974,115.178345 25.716791,107.478355 
	C27.879766,106.500572 29.490646,105.715561 31.144045,105.033638 
	C48.812016,97.746880 66.500237,90.508774 84.134811,83.142227 
	C85.599846,82.530228 87.734146,81.155304 87.818481,80.007126 
	C88.211365,74.658180 87.992577,69.264313 87.992577,63.171478 
	C58.399979,75.359406 29.699989,87.179703 1.000000,99.000000 
	C1.000000,66.341049 1.000000,33.682098 1.000000,1.050341 
	C531.666687,1.050341 1062.333374,1.050341 1593.000000,1.050341 
	C1593.000000,33.759617 1593.000000,66.418556 1592.725708,99.322342 
	C1590.964600,98.641998 1589.572021,97.491188 1587.976685,96.826111 
	C1569.265137,89.024956 1550.523560,81.295372 1531.788818,73.549728 
	C1523.693481,70.202888 1515.595581,66.862770 1506.701172,63.190247 
	C1506.701172,67.671295 1507.047485,71.321663 1506.618164,74.878410 
	C1506.006836,79.943329 1507.821899,82.387421 1512.714722,84.280678 
	C1529.759888,90.876511 1546.576904,98.062012 1563.475464,105.036179 
	C1565.044922,105.683891 1566.577026,106.422356 1568.750122,107.398949 
	C1566.717896,108.283836 1565.514648,108.837753 1564.289062,109.336815 
	C1546.437378,116.606285 1528.565063,123.825653 1510.759277,131.205948 
	C1509.175659,131.862350 1506.965454,133.464142 1506.852905,134.781128 
	C1506.403198,140.046127 1506.667358,145.372086 1506.667358,151.351089 
	C1535.876221,139.390778 1564.438110,127.695404 1593.000000,116.000015 
M187.706573,158.733261 
	C186.416229,165.549789 186.389420,171.962082 192.777679,176.675751 
	C193.506729,177.213699 193.586975,178.736084 193.812790,179.833954 
	C195.352448,187.319672 200.970947,191.358429 208.577164,190.986176 
	C212.333344,190.802353 216.312393,190.899734 219.876312,191.943268 
	C227.480682,194.169876 234.351776,191.011353 236.915573,183.414001 
	C237.273468,182.353439 237.572556,181.222321 238.173721,180.303711 
	C240.278824,177.087036 243.678192,174.177139 244.350388,170.716476 
	C245.009018,167.325592 242.937881,163.404480 242.004089,159.459396 
	C242.358597,159.253754 243.341125,158.683853 245.037598,158.082779 
	C278.469238,144.244156 298.086853,111.215370 293.872955,75.862297 
	C288.932770,34.415794 252.426392,4.520521 209.900253,7.096563 
	C169.789291,9.526306 137.406250,44.680996 137.669922,85.509064 
	C137.879044,117.889626 158.393784,147.962570 187.706573,158.733261 
M437.522491,44.830303 
	C434.410187,44.830303 431.297852,44.830303 428.408234,44.830303 
	C428.408234,69.047768 428.408234,92.699974 428.408234,115.801506 
	C425.494080,110.548241 422.811798,104.427361 419.013641,99.102409 
	C406.640625,81.755699 393.875977,64.687935 381.199463,47.559139 
	C380.381348,46.453682 379.051605,44.989979 377.929474,44.963100 
	C369.024475,44.749783 360.112152,44.844315 351.304443,44.844315 
	C351.304443,80.954292 351.304443,116.354897 351.304443,151.719727 
	C360.700012,151.719727 369.784973,151.719727 378.593018,151.719727 
	C378.593018,128.655884 378.593018,105.874001 378.593018,83.092110 
	C380.203735,83.978714 381.017334,85.259727 381.761444,86.579918 
	C383.718994,90.052933 385.323578,93.775703 387.639404,96.987503 
	C400.295685,114.540230 413.106598,131.981689 425.933990,149.410172 
	C426.731964,150.494370 428.106049,151.853760 429.240265,151.880280 
	C438.010651,152.085251 446.787933,151.993240 455.662109,151.993240 
	C455.662109,116.053658 455.662109,80.656425 455.662109,44.830276 
	C449.770874,44.830276 444.142487,44.830276 437.522491,44.830303 
M1153.542725,45.925514 
	C1146.036377,44.778286 1138.518799,42.581821 1131.025757,42.663136 
	C1096.205078,43.041012 1069.759033,77.580231 1077.934082,111.360794 
	C1085.212891,141.438126 1115.856323,160.426620 1146.066772,153.579849 
	C1173.819458,147.290115 1192.064087,124.620949 1190.830566,96.216515 
	C1189.772705,71.854584 1176.616089,55.420498 1153.542725,45.925514 
M736.899597,150.537781 
	C761.667664,139.398743 775.500854,115.910278 771.702698,91.442787 
	C767.551636,64.701096 747.426392,45.507404 720.573792,42.680389 
	C681.451538,38.561646 649.530884,74.756279 659.150635,112.337219 
	C667.070618,143.278030 701.638306,164.019241 736.899597,150.537781 
M1267.124756,125.458328 
	C1264.295166,122.918137 1261.465454,120.377953 1258.439697,117.661690 
	C1254.058594,124.920326 1249.794434,131.985107 1245.537964,139.036987 
	C1254.725830,148.142120 1265.212402,153.414124 1277.609253,154.589981 
	C1302.174072,156.919998 1323.172729,144.696777 1324.554810,118.989349 
	C1325.301025,105.109558 1319.252930,94.135773 1306.253418,89.063881 
	C1299.924316,86.594460 1293.268555,84.975548 1286.834839,82.756844 
	C1280.142334,80.448929 1277.186768,76.505074 1278.155029,71.700745 
	C1279.082031,67.100716 1284.465088,64.005501 1290.898682,64.391533 
	C1291.561646,64.431313 1292.262329,64.455345 1292.871216,64.684219 
	C1298.831421,66.924255 1304.775757,69.206299 1311.000122,71.581543 
	C1313.598999,65.582680 1316.486816,58.916805 1319.520874,51.913456 
	C1304.681396,42.544212 1289.149536,39.378265 1272.698120,44.951641 
	C1258.286743,49.833912 1250.494385,62.535870 1250.895264,78.391296 
	C1251.235474,91.837761 1258.172729,99.933121 1273.696899,104.986870 
	C1279.065430,106.734596 1284.540405,108.209351 1289.783936,110.273254 
	C1295.980225,112.712135 1298.159424,116.772224 1297.198975,122.739731 
	C1296.361816,127.940643 1291.850586,131.570694 1285.736450,131.993103 
	C1278.873779,132.467224 1273.074951,129.810287 1267.124756,125.458328 
M531.275208,135.215683 
	C547.811829,155.473236 578.318787,160.933578 600.586060,147.825745 
	C600.586060,137.506973 600.586060,127.348030 600.586060,116.826721 
	C584.470276,131.396332 568.928162,132.818375 556.821167,121.173698 
	C545.962524,110.729744 545.154175,89.984550 555.199158,77.645027 
	C559.481323,72.384644 565.118347,69.468376 571.808289,68.412766 
	C583.608521,66.550797 592.540588,71.986771 601.001831,80.739220 
	C601.001831,70.131851 601.097961,60.691563 600.879028,51.258583 
	C600.851929,50.090702 599.385254,48.435070 598.185425,47.895348 
	C584.659546,41.811123 570.684143,40.358479 556.387573,44.747192 
	C520.112366,55.882851 506.536133,103.769562 531.275208,135.215683 
M959.153320,83.499962 
	C959.153320,106.239388 959.153320,128.978806 959.153320,151.713455 
	C981.371216,151.713455 1002.927917,151.713455 1024.515625,151.713455 
	C1024.515625,143.362854 1024.515625,135.310028 1024.515625,126.879654 
	C1012.420593,126.879654 1000.651489,126.879654 988.460754,126.879654 
	C988.460754,99.425316 988.460754,72.352928 988.460754,45.215523 
	C978.498718,45.215523 968.973511,45.215523 959.153320,45.215523 
	C959.153320,57.904434 959.153320,70.202194 959.153320,83.499962 
M847.510742,151.999664 
	C865.072632,151.999664 882.634521,151.999664 900.120605,151.999664 
	C900.120605,143.269653 900.120605,135.232101 900.120605,126.832062 
	C887.956848,126.832062 876.197388,126.832062 864.021729,126.832062 
	C864.021729,99.401863 864.021729,72.344711 864.021729,45.056679 
	C854.199890,45.056679 844.804749,45.056679 835.253296,45.056679 
	C835.253296,80.767242 835.253296,116.267952 835.253296,151.999664 
	C839.228699,151.999664 842.872681,151.999664 847.510742,151.999664 
M1432.653442,42.155415 
	C1429.619873,42.207836 1426.784790,41.496777 1425.044067,45.653763 
	C1408.752075,84.560249 1392.199585,123.357697 1375.740845,162.194458 
	C1375.266479,163.313446 1374.992920,164.517517 1374.519897,166.017502 
	C1378.522095,166.017502 1382.032104,165.760483 1385.486938,166.087296 
	C1389.198975,166.438416 1390.927002,165.107513 1392.402466,161.586075 
	C1408.316406,123.604019 1424.451782,85.714645 1440.512939,47.794224 
	C1441.200684,46.170673 1441.756836,44.491470 1442.630005,42.153603 
	C1439.138672,42.153603 1436.362915,42.153603 1432.653442,42.155415 
z"/>
<path fill="#8D3436" opacity="1.000000" stroke="none" 
	d="
M1.000000,99.467606 
	C29.699989,87.179703 58.399979,75.359406 87.992577,63.171478 
	C87.992577,69.264313 88.211365,74.658180 87.818481,80.007126 
	C87.734146,81.155304 85.599846,82.530228 84.134811,83.142227 
	C66.500237,90.508774 48.812016,97.746880 31.144045,105.033638 
	C29.490646,105.715561 27.879766,106.500572 25.716791,107.478355 
	C44.629974,115.178345 62.871677,122.818230 81.303253,129.968689 
	C86.321037,131.915314 89.029449,134.137802 88.116066,139.910431 
	C87.557991,143.437500 88.012985,147.124878 88.012985,151.362183 
	C58.857491,139.426239 30.299170,127.734772 1.370423,116.021652 
	C1.000000,110.645073 1.000000,105.290138 1.000000,99.467606 
z"/>
<path fill="#8E3436" opacity="1.000000" stroke="none" 
	d="
M1593.000000,115.533157 
	C1564.438110,127.695404 1535.876221,139.390778 1506.667358,151.351089 
	C1506.667358,145.372086 1506.403198,140.046127 1506.852905,134.781128 
	C1506.965454,133.464142 1509.175659,131.862350 1510.759277,131.205948 
	C1528.565063,123.825653 1546.437378,116.606285 1564.289062,109.336815 
	C1565.514648,108.837753 1566.717896,108.283836 1568.750122,107.398949 
	C1566.577026,106.422356 1565.044922,105.683891 1563.475464,105.036179 
	C1546.576904,98.062012 1529.759888,90.876511 1512.714722,84.280678 
	C1507.821899,82.387421 1506.006836,79.943329 1506.618164,74.878410 
	C1507.047485,71.321663 1506.701172,67.671295 1506.701172,63.190247 
	C1515.595581,66.862770 1523.693481,70.202888 1531.788818,73.549728 
	C1550.523560,81.295372 1569.265137,89.024956 1587.976685,96.826111 
	C1589.572021,97.491188 1590.964600,98.641998 1592.725708,99.783592 
	C1593.000000,105.022095 1593.000000,110.044182 1593.000000,115.533157 
z"/>
<path fill="#373536" opacity="1.000000" stroke="none" 
	d="
M438.018311,44.830292 
	C444.142487,44.830276 449.770874,44.830276 455.662109,44.830276 
	C455.662109,80.656425 455.662109,116.053658 455.662109,151.993240 
	C446.787933,151.993240 438.010651,152.085251 429.240265,151.880280 
	C428.106049,151.853760 426.731964,150.494370 425.933990,149.410172 
	C413.106598,131.981689 400.295685,114.540230 387.639404,96.987503 
	C385.323578,93.775703 383.718994,90.052933 381.761444,86.579918 
	C381.017334,85.259727 380.203735,83.978714 378.593018,83.092110 
	C378.593018,105.874001 378.593018,128.655884 378.593018,151.719727 
	C369.784973,151.719727 360.700012,151.719727 351.304443,151.719727 
	C351.304443,116.354897 351.304443,80.954292 351.304443,44.844315 
	C360.112152,44.844315 369.024475,44.749783 377.929474,44.963100 
	C379.051605,44.989979 380.381348,46.453682 381.199463,47.559139 
	C393.875977,64.687935 406.640625,81.755699 419.013641,99.102409 
	C422.811798,104.427361 425.494080,110.548241 428.408234,115.801506 
	C428.408234,92.699974 428.408234,69.047768 428.408234,44.830303 
	C431.297852,44.830303 434.410187,44.830303 438.018311,44.830292 
z"/>
<path fill="#383637" opacity="1.000000" stroke="none" 
	d="
M1153.921753,46.014526 
	C1176.616089,55.420498 1189.772705,71.854584 1190.830566,96.216515 
	C1192.064087,124.620949 1173.819458,147.290115 1146.066772,153.579849 
	C1115.856323,160.426620 1085.212891,141.438126 1077.934082,111.360794 
	C1069.759033,77.580231 1096.205078,43.041012 1131.025757,42.663136 
	C1138.518799,42.581821 1146.036377,44.778286 1153.921753,46.014526 
M1137.965454,129.820511 
	C1140.928467,128.803146 1144.129272,128.208237 1146.814575,126.697281 
	C1160.468262,119.014633 1165.893188,99.381424 1158.783447,84.147011 
	C1153.203369,72.190353 1142.430298,65.823082 1130.464355,67.409538 
	C1114.225342,69.562523 1104.360474,83.906151 1106.092407,103.252510 
	C1107.466675,118.604225 1119.149414,131.762939 1137.965454,129.820511 
z"/>
<path fill="#383637" opacity="1.000000" stroke="none" 
	d="
M736.547974,150.696411 
	C701.638306,164.019241 667.070618,143.278030 659.150635,112.337219 
	C649.530884,74.756279 681.451538,38.561646 720.573792,42.680389 
	C747.426392,45.507404 767.551636,64.701096 771.702698,91.442787 
	C775.500854,115.910278 761.667664,139.398743 736.547974,150.696411 
M734.813354,121.291191 
	C743.154419,111.201080 744.808716,99.777710 741.145020,87.515663 
	C735.537048,68.746498 713.543701,60.885536 698.820496,72.444588 
	C688.688538,80.399086 685.786926,91.456902 687.201416,103.707878 
	C688.483643,114.813194 693.654663,123.809608 704.480957,128.005875 
	C715.501465,132.277435 725.729004,130.404449 734.813354,121.291191 
z"/>
<path fill="#383637" opacity="1.000000" stroke="none" 
	d="
M1267.408569,125.683052 
	C1273.074951,129.810287 1278.873779,132.467224 1285.736450,131.993103 
	C1291.850586,131.570694 1296.361816,127.940643 1297.198975,122.739731 
	C1298.159424,116.772224 1295.980225,112.712135 1289.783936,110.273254 
	C1284.540405,108.209351 1279.065430,106.734596 1273.696899,104.986870 
	C1258.172729,99.933121 1251.235474,91.837761 1250.895264,78.391296 
	C1250.494385,62.535870 1258.286743,49.833912 1272.698120,44.951641 
	C1289.149536,39.378265 1304.681396,42.544212 1319.520874,51.913456 
	C1316.486816,58.916805 1313.598999,65.582680 1311.000122,71.581543 
	C1304.775757,69.206299 1298.831421,66.924255 1292.871216,64.684219 
	C1292.262329,64.455345 1291.561646,64.431313 1290.898682,64.391533 
	C1284.465088,64.005501 1279.082031,67.100716 1278.155029,71.700745 
	C1277.186768,76.505074 1280.142334,80.448929 1286.834839,82.756844 
	C1293.268555,84.975548 1299.924316,86.594460 1306.253418,89.063881 
	C1319.252930,94.135773 1325.301025,105.109558 1324.554810,118.989349 
	C1323.172729,144.696777 1302.174072,156.919998 1277.609253,154.589981 
	C1265.212402,153.414124 1254.725830,148.142120 1245.537964,139.036987 
	C1249.794434,131.985107 1254.058594,124.920326 1258.439697,117.661690 
	C1261.465454,120.377953 1264.295166,122.918137 1267.408569,125.683052 
z"/>
<path fill="#383637" opacity="1.000000" stroke="none" 
	d="
M531.056396,134.934036 
	C506.536133,103.769562 520.112366,55.882851 556.387573,44.747192 
	C570.684143,40.358479 584.659546,41.811123 598.185425,47.895348 
	C599.385254,48.435070 600.851929,50.090702 600.879028,51.258583 
	C601.097961,60.691563 601.001831,70.131851 601.001831,80.739220 
	C592.540588,71.986771 583.608521,66.550797 571.808289,68.412766 
	C565.118347,69.468376 559.481323,72.384644 555.199158,77.645027 
	C545.154175,89.984550 545.962524,110.729744 556.821167,121.173698 
	C568.928162,132.818375 584.470276,131.396332 600.586060,116.826721 
	C600.586060,127.348030 600.586060,137.506973 600.586060,147.825745 
	C578.318787,160.933578 547.811829,155.473236 531.056396,134.934036 
z"/>
<path fill="#393738" opacity="1.000000" stroke="none" 
	d="
M959.153320,82.999954 
	C959.153320,70.202194 959.153320,57.904434 959.153320,45.215523 
	C968.973511,45.215523 978.498718,45.215523 988.460754,45.215523 
	C988.460754,72.352928 988.460754,99.425316 988.460754,126.879654 
	C1000.651489,126.879654 1012.420593,126.879654 1024.515625,126.879654 
	C1024.515625,135.310028 1024.515625,143.362854 1024.515625,151.713455 
	C1002.927917,151.713455 981.371216,151.713455 959.153320,151.713455 
	C959.153320,128.978806 959.153320,106.239388 959.153320,82.999954 
z"/>
<path fill="#363535" opacity="1.000000" stroke="none" 
	d="
M847.013733,151.999664 
	C842.872681,151.999664 839.228699,151.999664 835.253296,151.999664 
	C835.253296,116.267952 835.253296,80.767242 835.253296,45.056679 
	C844.804749,45.056679 854.199890,45.056679 864.021729,45.056679 
	C864.021729,72.344711 864.021729,99.401863 864.021729,126.832062 
	C876.197388,126.832062 887.956848,126.832062 900.120605,126.832062 
	C900.120605,135.232101 900.120605,143.269653 900.120605,151.999664 
	C882.634521,151.999664 865.072632,151.999664 847.013733,151.999664 
z"/>
<path fill="#8E3637" opacity="1.000000" stroke="none" 
	d="
M1433.120239,42.154510 
	C1436.362915,42.153603 1439.138672,42.153603 1442.630005,42.153603 
	C1441.756836,44.491470 1441.200684,46.170673 1440.512939,47.794224 
	C1424.451782,85.714645 1408.316406,123.604019 1392.402466,161.586075 
	C1390.927002,165.107513 1389.198975,166.438416 1385.486938,166.087296 
	C1382.032104,165.760483 1378.522095,166.017502 1374.519897,166.017502 
	C1374.992920,164.517517 1375.266479,163.313446 1375.740845,162.194458 
	C1392.199585,123.357697 1408.752075,84.560249 1425.044067,45.653763 
	C1426.784790,41.496777 1429.619873,42.207836 1433.120239,42.154510 
z"/>
<path fill="#281B0D" opacity="1.000000" stroke="none" 
	d="
M187.099106,157.968201 
	C158.393784,147.962570 137.879044,117.889626 137.669922,85.509064 
	C137.406250,44.680996 169.789291,9.526306 209.900253,7.096563 
	C252.426392,4.520521 288.932770,34.415794 293.872955,75.862297 
	C298.086853,111.215370 278.469238,144.244156 244.289322,158.064957 
	C241.693710,158.425812 239.846359,158.804489 236.934662,159.401337 
	C236.004456,156.712311 235.086838,153.747192 233.937393,150.874832 
	C233.401230,149.535034 232.416107,148.374893 231.368835,146.926285 
	C229.594254,145.810013 227.686752,143.799362 226.643539,144.176910 
	C221.351166,146.092209 221.216599,142.192795 220.458939,139.133072 
	C219.862473,136.724258 220.191727,133.983444 219.195312,131.809219 
	C218.408554,130.092499 216.230560,129.013367 214.670441,127.651070 
	C213.478439,129.176559 211.764801,130.534286 211.208420,132.264206 
	C210.203705,135.388229 210.067413,138.781174 209.228409,141.972397 
	C208.641754,144.203857 207.792099,145.920624 204.457382,145.794495 
	C200.988480,145.663269 198.571136,148.520020 198.813644,152.106216 
	C199.017883,155.126938 197.896988,156.027969 194.915192,156.125381 
	C194.007950,156.622253 193.484451,157.115494 192.901031,157.676239 
	C192.841080,157.743729 192.660843,158.034134 192.196869,158.026352 
	C190.188309,158.001785 188.643707,157.984985 187.099106,157.968201 
M161.142151,136.495956 
	C161.430710,136.656631 161.719284,136.817291 161.998642,137.000610 
	C161.998642,137.000610 162.020065,136.989304 162.214798,137.634125 
	C169.250366,145.042938 177.534729,150.646790 186.938385,154.585464 
	C190.836517,156.218216 193.938278,154.409927 195.430115,149.443802 
	C197.678772,147.135910 199.557007,143.592514 202.255081,142.783585 
	C207.479263,141.217300 207.719208,137.554565 206.872360,133.973801 
	C206.074188,130.598877 206.013336,128.045090 208.966888,126.155983 
	C212.615326,123.822426 216.537201,123.795876 220.331818,125.851456 
	C223.161697,127.384407 223.756409,129.743393 223.341644,133.007034 
	C223.009048,135.624146 222.265610,139.639572 226.223953,140.297455 
	C231.586456,141.188675 234.378952,144.273361 235.955750,149.814362 
	C236.385620,155.013550 238.321960,157.167282 241.942169,155.767456 
	C256.459259,150.154144 268.699829,141.525360 277.089020,128.003418 
	C277.089020,128.003418 277.131592,128.160217 277.619141,127.960197 
	C277.742188,127.641731 277.865265,127.323265 278.003143,127.001854 
	C278.003143,127.001854 278.001373,126.986679 278.543579,126.734535 
	C278.800476,126.203644 279.057343,125.672745 279.798492,124.676308 
	C295.104492,97.937622 295.420319,71.373100 278.852722,44.493935 
	C278.602356,44.287910 278.351990,44.081890 278.059540,44.007740 
	C278.059540,44.007740 278.130432,43.888599 278.028717,43.208691 
	C259.713135,17.896763 234.950806,6.934661 204.082825,11.280527 
	C186.477585,13.759149 171.398987,21.861181 159.987076,35.982502 
	C159.987076,35.982502 159.952454,35.974392 159.445557,36.090405 
	C159.309875,36.391300 159.174194,36.692192 158.990097,36.995167 
	C158.990097,36.995167 159.003448,37.041740 158.460419,37.204403 
	C158.058273,37.821041 157.656128,38.437679 156.711273,39.487553 
	C155.165878,41.653351 153.529053,43.760208 152.089020,45.993942 
	C135.299011,72.038284 137.769882,110.019981 157.845245,132.687469 
	C158.127289,132.885635 158.409348,133.083801 158.832245,133.326935 
	C158.832245,133.326935 158.681305,133.305283 158.814789,133.855103 
	C159.224289,134.210693 159.633789,134.566284 160.012375,134.988983 
	C160.012375,134.988983 160.083282,134.968124 160.180313,135.462418 
	C160.457184,135.628708 160.734055,135.794983 160.996063,136.001373 
	C160.996063,136.001373 161.037445,135.990601 161.142151,136.495956 
z"/>
<path fill="#23211D" opacity="1.000000" stroke="none" 
	d="
M231.634491,147.133301 
	C232.416107,148.374893 233.401230,149.535034 233.937393,150.874832 
	C235.086838,153.747192 236.004456,156.712311 236.934662,159.401337 
	C239.846359,158.804489 241.693710,158.425812 243.932343,158.080536 
	C243.341125,158.683853 242.358597,159.253754 242.004089,159.459396 
	C242.937881,163.404480 245.009018,167.325592 244.350388,170.716476 
	C243.678192,174.177139 240.278824,177.087036 238.173721,180.303711 
	C237.572556,181.222321 237.273468,182.353439 236.915573,183.414001 
	C234.351776,191.011353 227.480682,194.169876 219.876312,191.943268 
	C216.312393,190.899734 212.333344,190.802353 208.577164,190.986176 
	C200.970947,191.358429 195.352448,187.319672 193.812790,179.833954 
	C193.586975,178.736084 193.506729,177.213699 192.777679,176.675751 
	C186.389420,171.962082 186.416229,165.549789 187.402832,158.350739 
	C188.643707,157.984985 190.188309,158.001785 192.010910,158.378769 
	C188.856262,165.553268 189.714523,169.483292 195.112808,174.041580 
	C196.232590,174.987106 196.744568,176.997726 196.967133,178.596756 
	C197.678284,183.706268 201.747498,188.249222 206.499405,187.633820 
	C212.358444,186.875046 218.999954,188.646622 223.575317,182.589874 
	C223.841003,182.947586 224.106705,183.305298 224.372391,183.662994 
	C223.458862,185.362717 222.545334,187.062439 221.600998,188.819473 
	C227.811783,190.234848 231.230576,188.316238 233.168060,182.524231 
	C231.838043,182.270187 230.513321,182.017136 229.155670,181.757797 
	C232.325317,179.822510 235.414612,178.246582 238.146240,176.194550 
	C242.081345,173.238403 242.619186,166.403381 239.097321,163.406342 
	C237.831223,162.328918 235.656464,162.319290 233.160995,161.614716 
	C232.759003,157.801163 232.196747,152.467239 231.634491,147.133301 
z"/>
<path fill="#F5F5F5" opacity="1.000000" stroke="none" 
	d="
M1137.526733,129.845245 
	C1119.149414,131.762939 1107.466675,118.604225 1106.092407,103.252510 
	C1104.360474,83.906151 1114.225342,69.562523 1130.464355,67.409538 
	C1142.430298,65.823082 1153.203369,72.190353 1158.783447,84.147011 
	C1165.893188,99.381424 1160.468262,119.014633 1146.814575,126.697281 
	C1144.129272,128.208237 1140.928467,128.803146 1137.526733,129.845245 
z"/>
<path fill="#F5F5F5" opacity="1.000000" stroke="none" 
	d="
M734.566162,121.550385 
	C725.729004,130.404449 715.501465,132.277435 704.480957,128.005875 
	C693.654663,123.809608 688.483643,114.813194 687.201416,103.707878 
	C685.786926,91.456902 688.688538,80.399086 698.820496,72.444588 
	C713.543701,60.885536 735.537048,68.746498 741.145020,87.515663 
	C744.808716,99.777710 743.154419,111.201080 734.566162,121.550385 
z"/>
<path fill="#F8AF1F" opacity="1.000000" stroke="none" 
	d="
M157.665695,132.185379 
	C137.769882,110.019981 135.299011,72.038284 152.089020,45.993942 
	C153.529053,43.760208 155.165878,41.653351 157.280243,39.219315 
	C158.233948,38.314629 158.618698,37.678185 159.003448,37.041740 
	C159.003448,37.041740 158.990097,36.995167 159.239441,36.899952 
	C159.773193,36.600491 159.927750,36.323708 159.952454,35.974392 
	C159.952454,35.974392 159.987076,35.982502 160.350220,35.994106 
	C161.744339,35.554840 162.923264,35.294109 163.783920,34.624359 
	C175.352127,25.622021 188.768784,20.592800 203.019958,19.241846 
	C229.193649,16.760687 252.826309,23.798157 272.953735,41.311058 
	C274.361267,42.535744 276.390381,43.046082 278.130432,43.888599 
	C278.130432,43.888599 278.059540,44.007740 278.109985,44.186340 
	C278.301727,44.685280 278.539185,44.898468 278.872803,45.004513 
	C295.420319,71.373100 295.104492,97.937622 279.252869,124.999023 
	C278.471954,125.876717 278.236664,126.431694 278.001373,126.986679 
	C278.001373,126.986679 278.003143,127.001854 277.760498,127.115326 
	C277.389099,127.539268 277.260345,127.849747 277.131592,128.160217 
	C277.131592,128.160217 277.089020,128.003418 276.771057,128.055130 
	C275.739471,128.491486 274.994934,128.828415 274.317017,129.268036 
	C266.310913,134.459778 258.541229,140.074249 250.221436,144.699844 
	C245.997391,147.048294 240.786636,147.621948 236.021942,148.997955 
	C234.378952,144.273361 231.586456,141.188675 226.223953,140.297455 
	C222.265610,139.639572 223.009048,135.624146 223.341644,133.007034 
	C223.756409,129.743393 223.161697,127.384407 220.331818,125.851456 
	C216.537201,123.795876 212.615326,123.822426 208.966888,126.155983 
	C206.013336,128.045090 206.074188,130.598877 206.872360,133.973801 
	C207.719208,137.554565 207.479263,141.217300 202.255081,142.783585 
	C199.557007,143.592514 197.678772,147.135910 194.825073,149.744827 
	C187.967865,148.037582 181.595596,146.332977 175.502457,143.922684 
	C170.825882,142.072769 166.501221,139.333221 162.020065,136.989304 
	C162.020065,136.989304 161.998642,137.000610 161.919525,136.758606 
	C161.647354,136.227402 161.379684,136.052063 161.037445,135.990601 
	C161.037445,135.990601 160.996063,136.001373 160.929199,135.751465 
	C160.680573,135.209961 160.420883,135.032150 160.083282,134.968124 
	C160.083282,134.968124 160.012375,134.988983 160.001221,134.652161 
	C159.553802,133.978638 159.117554,133.641968 158.681305,133.305283 
	C158.681305,133.305283 158.832245,133.326935 158.730377,133.017456 
	C158.307556,132.533768 157.986633,132.359573 157.665695,132.185379 
M273.386749,93.770729 
	C273.592255,93.492073 273.797760,93.213417 274.452209,92.437813 
	C275.374451,90.952065 277.195160,89.386658 277.071686,87.993614 
	C276.322418,79.542274 273.624329,71.701035 268.007202,65.160156 
	C256.647400,51.932301 235.716461,53.816551 227.391464,69.082321 
	C222.147034,78.699150 219.293747,88.772591 226.533875,99.210060 
	C227.383972,100.118874 228.234055,101.027695 229.038849,102.009247 
	C229.038849,102.009247 229.066711,101.931442 228.928192,102.661499 
	C230.314224,109.120918 241.893326,115.005264 251.775635,113.917366 
	C262.230835,112.766396 271.493469,104.551735 271.980133,95.992836 
	C271.980133,95.992836 271.905579,96.004173 272.494690,95.738487 
	C272.648499,95.129517 272.802338,94.520546 272.982483,93.980125 
	C272.982483,93.980125 272.910522,93.994835 273.386749,93.770729 
M205.455292,93.748039 
	C205.644058,93.172607 205.832840,92.597176 206.442123,91.418404 
	C206.857422,90.240936 207.806412,88.958038 207.598160,87.903740 
	C206.541245,82.553253 205.781204,77.027168 203.803589,72.000732 
	C200.091415,62.565636 192.943451,57.041569 182.547852,56.519455 
	C172.602982,56.019981 164.257904,59.659664 159.499512,68.440063 
	C156.244370,74.446579 154.701996,81.390579 152.519119,87.957092 
	C152.249481,88.768227 152.462921,90.029922 152.946487,90.752045 
	C155.227585,94.158485 157.680710,97.449738 159.670715,101.141693 
	C160.141769,101.399902 160.612823,101.658112 161.069031,101.931351 
	C161.069031,101.931351 161.067535,101.934647 160.908295,102.663841 
	C163.978653,110.333794 170.754517,112.509407 177.908508,113.723465 
	C191.702118,116.064262 204.762024,104.378227 204.965973,93.995094 
	C204.965973,93.995094 204.887314,93.997864 205.455292,93.748039 
M229.982330,38.191849 
	C231.291992,39.108078 232.616501,40.835194 233.908951,40.811531 
	C243.740387,40.631519 253.070068,42.629734 262.100342,46.382240 
	C263.222076,46.848385 264.531128,46.863846 266.021454,47.137329 
	C261.971741,34.832806 242.662292,29.944714 229.982330,38.191849 
M194.998413,35.186512 
	C181.420181,31.491341 165.291870,37.611588 164.338013,47.174351 
	C170.272232,45.423996 175.995682,43.271038 181.914017,42.120392 
	C187.874542,40.961548 194.028717,40.798794 200.098053,40.199589 
	C200.187607,39.685726 200.277145,39.171860 200.366699,38.657997 
	C198.824585,37.607342 197.282486,36.556690 194.998413,35.186512 
z"/>
<path fill="#CDCCCC" opacity="1.000000" stroke="none" 
	d="
M231.368835,146.926285 
	C232.196747,152.467239 232.759003,157.801163 233.160995,161.614716 
	C235.656464,162.319290 237.831223,162.328918 239.097321,163.406342 
	C242.619186,166.403381 242.081345,173.238403 238.146240,176.194550 
	C235.414612,178.246582 232.325317,179.822510 229.155670,181.757797 
	C230.513321,182.017136 231.838043,182.270187 233.168060,182.524231 
	C231.230576,188.316238 227.811783,190.234848 221.600998,188.819473 
	C222.545334,187.062439 223.458862,185.362717 224.372391,183.662994 
	C224.106705,183.305298 223.841003,182.947586 223.575317,182.589874 
	C218.999954,188.646622 212.358444,186.875046 206.499405,187.633820 
	C201.747498,188.249222 197.678284,183.706268 196.967133,178.596756 
	C196.744568,176.997726 196.232590,174.987106 195.112808,174.041580 
	C189.714523,169.483292 188.856262,165.553268 192.474884,158.386551 
	C192.660843,158.034134 192.841080,157.743729 193.234161,157.551575 
	C194.184494,156.946854 194.741714,156.534286 195.298950,156.121735 
	C197.896988,156.027969 199.017883,155.126938 198.813644,152.106216 
	C198.571136,148.520020 200.988480,145.663269 204.457382,145.794495 
	C207.792099,145.920624 208.641754,144.203857 209.228409,141.972397 
	C210.067413,138.781174 210.203705,135.388229 211.208420,132.264206 
	C211.764801,130.534286 213.478439,129.176559 214.670441,127.651070 
	C216.230560,129.013367 218.408554,130.092499 219.195312,131.809219 
	C220.191727,133.983444 219.862473,136.724258 220.458939,139.133072 
	C221.216599,142.192795 221.351166,146.092209 226.643539,144.176910 
	C227.686752,143.799362 229.594254,145.810013 231.368835,146.926285 
M219.836029,151.249893 
	C220.261459,151.152710 220.686890,151.055527 221.112320,150.958359 
	C221.050232,150.818527 221.027618,150.623322 220.920334,150.546875 
	C217.281784,147.954025 210.333206,149.121628 206.916412,153.251648 
	C204.489944,156.184555 203.698853,160.539154 199.317200,161.722992 
	C199.556854,161.903366 199.796509,162.083740 200.078384,163.005234 
	C201.935699,163.948624 203.816254,164.849365 205.645065,165.845108 
	C208.628067,167.469284 209.224640,166.193573 210.204773,163.296112 
	C211.330307,159.968826 213.815491,157.059937 215.933594,154.130936 
	C216.747833,153.004959 218.177979,152.324341 219.836029,151.249893 
z"/>
<path fill="#D6931C" opacity="1.000000" stroke="none" 
	d="
M278.079590,43.548645 
	C276.390381,43.046082 274.361267,42.535744 272.953735,41.311058 
	C252.826309,23.798157 229.193649,16.760687 203.019958,19.241846 
	C188.768784,20.592800 175.352127,25.622021 163.783920,34.624359 
	C162.923264,35.294109 161.744339,35.554840 160.345490,35.976959 
	C171.398987,21.861181 186.477585,13.759149 204.082825,11.280527 
	C234.950806,6.934661 259.713135,17.896763 278.079590,43.548645 
z"/>
<path fill="#D3921E" opacity="1.000000" stroke="none" 
	d="
M235.988846,149.406158 
	C240.786636,147.621948 245.997391,147.048294 250.221436,144.699844 
	C258.541229,140.074249 266.310913,134.459778 274.317017,129.268036 
	C274.994934,128.828415 275.739471,128.491486 276.810852,128.125977 
	C268.699829,141.525360 256.459259,150.154144 241.942169,155.767456 
	C238.321960,157.167282 236.385620,155.013550 235.988846,149.406158 
z"/>
<path fill="#CF9021" opacity="1.000000" stroke="none" 
	d="
M162.117432,137.311707 
	C166.501221,139.333221 170.825882,142.072769 175.502457,143.922684 
	C181.595596,146.332977 187.967865,148.037582 194.650696,150.035873 
	C193.938278,154.409927 190.836517,156.218216 186.938385,154.585464 
	C177.534729,150.646790 169.250366,145.042938 162.117432,137.311707 
z"/>
<path fill="#D6931C" opacity="1.000000" stroke="none" 
	d="
M158.731934,37.123070 
	C158.618698,37.678185 158.233948,38.314629 157.551605,39.002693 
	C157.656128,38.437679 158.058273,37.821041 158.731934,37.123070 
z"/>
<path fill="#23211D" opacity="1.000000" stroke="none" 
	d="
M194.915192,156.125381 
	C194.741714,156.534286 194.184494,156.946854 193.294113,157.484070 
	C193.484451,157.115494 194.007950,156.622253 194.915192,156.125381 
z"/>
<path fill="#CF9021" opacity="1.000000" stroke="none" 
	d="
M158.748047,133.580200 
	C159.117554,133.641968 159.553802,133.978638 160.016678,134.618591 
	C159.633789,134.566284 159.224289,134.210693 158.748047,133.580200 
z"/>
<path fill="#D3921E" opacity="1.000000" stroke="none" 
	d="
M278.272461,126.860603 
	C278.236664,126.431694 278.471954,125.876717 279.010742,125.231789 
	C279.057343,125.672745 278.800476,126.203644 278.272461,126.860603 
z"/>
<path fill="#D3921E" opacity="1.000000" stroke="none" 
	d="
M277.375366,128.060211 
	C277.260345,127.849747 277.389099,127.539268 277.753052,127.116791 
	C277.865265,127.323265 277.742188,127.641731 277.375366,128.060211 
z"/>
<path fill="#CF9021" opacity="1.000000" stroke="none" 
	d="
M157.755463,132.436432 
	C157.986633,132.359573 158.307556,132.533768 158.659943,132.994965 
	C158.409348,133.083801 158.127289,132.885635 157.755463,132.436432 
z"/>
<path fill="#CF9021" opacity="1.000000" stroke="none" 
	d="
M160.131805,135.215271 
	C160.420883,135.032150 160.680573,135.209961 160.936646,135.731415 
	C160.734055,135.794983 160.457184,135.628708 160.131805,135.215271 
z"/>
<path fill="#CF9021" opacity="1.000000" stroke="none" 
	d="
M161.089798,136.243286 
	C161.379684,136.052063 161.647354,136.227402 161.924133,136.747284 
	C161.719284,136.817291 161.430710,136.656631 161.089798,136.243286 
z"/>
<path fill="#D6931C" opacity="1.000000" stroke="none" 
	d="
M159.699005,36.032398 
	C159.927750,36.323708 159.773193,36.600491 159.263641,36.898911 
	C159.174194,36.692192 159.309875,36.391300 159.699005,36.032398 
z"/>
<path fill="#D6931C" opacity="1.000000" stroke="none" 
	d="
M278.862762,44.749222 
	C278.539185,44.898468 278.301727,44.685280 278.131042,44.120407 
	C278.351990,44.081890 278.602356,44.287910 278.862762,44.749222 
z"/>
<path fill="#2A1403" opacity="1.000000" stroke="none" 
	d="
M160.072495,100.782059 
	C157.680710,97.449738 155.227585,94.158485 152.946487,90.752045 
	C152.462921,90.029922 152.249481,88.768227 152.519119,87.957092 
	C154.701996,81.390579 156.244370,74.446579 159.499512,68.440063 
	C164.257904,59.659664 172.602982,56.019981 182.547852,56.519455 
	C192.943451,57.041569 200.091415,62.565636 203.803589,72.000732 
	C205.781204,77.027168 206.541245,82.553253 207.598160,87.903740 
	C207.806412,88.958038 206.857422,90.240936 205.926849,91.814629 
	C205.236832,92.806526 205.062073,93.402199 204.887329,93.997864 
	C204.887314,93.997864 204.965973,93.995094 204.686005,94.164795 
	C200.297684,103.496788 194.114792,110.001839 183.491058,111.126694 
	C174.310333,112.098778 167.193314,108.286964 161.067535,101.934647 
	C161.067535,101.934647 161.069031,101.931351 161.062881,101.638496 
	C160.728653,101.157784 160.400574,100.969925 160.072495,100.782059 
M173.913071,61.589668 
	C173.913071,61.589668 173.566406,61.502789 172.883881,61.427128 
	C170.264084,63.332363 167.644287,65.237602 164.395432,67.361557 
	C159.245087,73.533195 156.870865,80.755455 155.911545,89.010010 
	C157.812515,89.384651 159.383713,89.694298 161.714600,90.341309 
	C165.166031,90.601982 168.617477,90.862656 172.818909,91.463638 
	C181.912750,90.961456 191.006561,90.458359 200.100479,89.957558 
	C203.630173,89.763168 204.776688,87.722641 203.821899,84.605988 
	C202.277695,79.565254 201.156677,74.223022 198.630371,69.692017 
	C193.870911,61.155788 184.151688,58.000477 174.337921,61.039112 
	C174.181656,61.340855 174.025391,61.642593 173.913071,61.589668 
M163.047470,94.176567 
	C163.138992,95.606445 162.748245,97.321480 163.398407,98.421043 
	C168.536423,107.110680 180.374008,110.415230 189.564987,105.990456 
	C194.602020,103.565506 198.265793,100.063507 200.148438,94.213623 
	C194.856674,93.729477 190.694595,93.957489 186.925064,97.276848 
	C183.199661,100.557350 178.388779,101.284058 174.657471,97.905289 
	C171.337326,94.898849 167.678070,94.623932 163.047470,94.176567 
z"/>
<path fill="#291403" opacity="1.000000" stroke="none" 
	d="
M226.962173,98.776360 
	C219.293747,88.772591 222.147034,78.699150 227.391464,69.082321 
	C235.716461,53.816551 256.647400,51.932301 268.007202,65.160156 
	C273.624329,71.701035 276.322418,79.542274 277.071686,87.993614 
	C277.195160,89.386658 275.374451,90.952065 273.937286,92.730698 
	C273.251740,93.347328 273.081146,93.671082 272.910522,93.994835 
	C272.910522,93.994835 272.982483,93.980125 272.667786,94.063812 
	C272.203918,94.766396 272.054749,95.385284 271.905579,96.004173 
	C271.905579,96.004173 271.980133,95.992836 271.700378,96.164703 
	C266.318176,106.953690 258.008911,111.947685 246.133255,111.137672 
	C238.956772,110.648178 234.021545,106.354996 229.066711,101.931442 
	C229.066711,101.931442 229.038849,102.009247 229.087814,101.638290 
	C228.411911,100.437012 227.687042,99.606689 226.962173,98.776360 
M255.890228,61.480782 
	C255.579193,61.343697 255.268143,61.206612 254.262482,60.632595 
	C238.325165,57.557095 223.952759,70.787094 225.936432,86.861778 
	C226.065674,87.909035 227.637802,89.535278 228.626114,89.602226 
	C238.369370,90.262184 248.131149,90.649010 258.783173,91.312225 
	C262.498627,90.803383 266.214081,90.294548 270.689362,89.875008 
	C271.716309,88.753075 273.778046,87.433647 273.607544,86.540253 
	C272.161255,78.961899 270.310852,71.459915 263.640076,65.533875 
	C261.106110,64.320595 258.572144,63.107319 256.009949,61.975689 
	C256.009949,61.975689 256.093231,61.998676 255.890228,61.480782 
M237.214218,104.475723 
	C249.630203,112.589493 265.808929,105.262230 267.822083,93.021515 
	C263.280609,94.784538 259.253601,95.760933 255.876801,97.809242 
	C251.775665,100.296906 246.777008,100.784653 243.003036,97.428413 
	C239.027359,93.892807 234.454712,94.283524 229.926880,93.946587 
	C229.620468,94.380669 229.314056,94.814751 229.007645,95.248833 
	C231.552444,98.168991 234.097244,101.089149 237.214218,104.475723 
z"/>
<path fill="#211202" opacity="1.000000" stroke="none" 
	d="
M230.203918,37.909332 
	C242.662292,29.944714 261.971741,34.832806 266.021454,47.137329 
	C264.531128,46.863846 263.222076,46.848385 262.100342,46.382240 
	C253.070068,42.629734 243.740387,40.631519 233.908951,40.811531 
	C232.616501,40.835194 231.291992,39.108078 230.203918,37.909332 
z"/>
<path fill="#211202" opacity="1.000000" stroke="none" 
	d="
M195.369400,35.346275 
	C197.282486,36.556690 198.824585,37.607342 200.366699,38.657997 
	C200.277145,39.171860 200.187607,39.685726 200.098053,40.199589 
	C194.028717,40.798794 187.874542,40.961548 181.914017,42.120392 
	C175.995682,43.271038 170.272232,45.423996 164.338013,47.174351 
	C165.291870,37.611588 181.420181,31.491341 195.369400,35.346275 
z"/>
<path fill="#ECD06E" opacity="1.000000" stroke="none" 
	d="
M160.987915,102.299240 
	C167.193314,108.286964 174.310333,112.098778 183.491058,111.126694 
	C194.114792,110.001839 200.297684,103.496788 204.680664,94.125809 
	C204.762024,104.378227 191.702118,116.064262 177.908508,113.723465 
	C170.754517,112.509407 163.978653,110.333794 160.987915,102.299240 
z"/>
<path fill="#EDD270" opacity="1.000000" stroke="none" 
	d="
M228.997452,102.296471 
	C234.021545,106.354996 238.956772,110.648178 246.133255,111.137672 
	C258.008911,111.947685 266.318176,106.953690 271.691986,96.127930 
	C271.493469,104.551735 262.230835,112.766396 251.775635,113.917366 
	C241.893326,115.005264 230.314224,109.120918 228.997452,102.296471 
z"/>
<path fill="#EDD270" opacity="1.000000" stroke="none" 
	d="
M226.748016,98.993210 
	C227.687042,99.606689 228.411911,100.437012 229.110474,101.601921 
	C228.234055,101.027695 227.383972,100.118874 226.748016,98.993210 
z"/>
<path fill="#ECD06E" opacity="1.000000" stroke="none" 
	d="
M159.871613,100.961876 
	C160.400574,100.969925 160.728653,101.157784 161.070312,101.630981 
	C160.612823,101.658112 160.141769,101.399902 159.871613,100.961876 
z"/>
<path fill="#EDD270" opacity="1.000000" stroke="none" 
	d="
M272.200134,95.871330 
	C272.054749,95.385284 272.203918,94.766396 272.654633,94.029541 
	C272.802338,94.520546 272.648499,95.129517 272.200134,95.871330 
z"/>
<path fill="#ECD06E" opacity="1.000000" stroke="none" 
	d="
M205.171310,93.872955 
	C205.062073,93.402199 205.236832,92.806526 205.716599,92.116302 
	C205.832840,92.597176 205.644058,93.172607 205.171310,93.872955 
z"/>
<path fill="#EDD270" opacity="1.000000" stroke="none" 
	d="
M273.148621,93.882782 
	C273.081146,93.671082 273.251740,93.347328 273.712799,92.979172 
	C273.797760,93.213417 273.592255,93.492073 273.148621,93.882782 
z"/>
<path fill="#221F1C" opacity="1.000000" stroke="none" 
	d="
M200.036163,162.264114 
	C199.796509,162.083740 199.556854,161.903366 199.317200,161.722992 
	C203.698853,160.539154 204.489944,156.184555 206.916412,153.251648 
	C210.333206,149.121628 217.281784,147.954025 220.920334,150.546875 
	C221.027618,150.623322 221.050232,150.818527 221.112320,150.958359 
	C220.686890,151.055527 220.261459,151.152710 219.140564,151.303558 
	C211.400528,152.127548 207.123993,155.799835 206.604095,163.017227 
	C204.164688,162.737518 202.100433,162.500809 200.036163,162.264114 
z"/>
<path fill="#E8E6E5" opacity="1.000000" stroke="none" 
	d="
M200.057281,162.634674 
	C202.100433,162.500809 204.164688,162.737518 206.604095,163.017227 
	C207.123993,155.799835 211.400528,152.127548 218.886292,151.399017 
	C218.177979,152.324341 216.747833,153.004959 215.933594,154.130936 
	C213.815491,157.059937 211.330307,159.968826 210.204773,163.296112 
	C209.224640,166.193573 208.628067,167.469284 205.645065,165.845108 
	C203.816254,164.849365 201.935699,163.948624 200.057281,162.634674 
z"/>
<path fill="#F4B444" opacity="1.000000" stroke="none" 
	d="
M174.997238,61.075455 
	C184.151688,58.000477 193.870911,61.155788 198.630371,69.692017 
	C201.156677,74.223022 202.277695,79.565254 203.821899,84.605988 
	C204.776688,87.722641 203.630173,89.763168 200.100479,89.957558 
	C191.006561,90.458359 181.912750,90.961456 172.273834,90.902107 
	C171.958710,83.959747 172.103088,77.574203 172.454315,71.200058 
	C172.633011,67.957054 173.183807,64.734558 173.566406,61.502789 
	C173.566406,61.502789 173.913071,61.589668 174.125244,61.690102 
	C174.633698,61.622623 174.853638,61.384262 174.997238,61.075455 
z"/>
<path fill="#942018" opacity="1.000000" stroke="none" 
	d="
M163.436981,94.117508 
	C167.678070,94.623932 171.337326,94.898849 174.657471,97.905289 
	C178.388779,101.284058 183.199661,100.557350 186.925064,97.276848 
	C190.694595,93.957489 194.856674,93.729477 200.148438,94.213623 
	C198.265793,100.063507 194.602020,103.565506 189.564987,105.990456 
	C180.374008,110.415230 168.536423,107.110680 163.398407,98.421043 
	C162.748245,97.321480 163.138992,95.606445 163.436981,94.117508 
z"/>
<path fill="#FBE579" opacity="1.000000" stroke="none" 
	d="
M173.225143,61.464958 
	C173.183807,64.734558 172.633011,67.957054 172.454315,71.200058 
	C172.103088,77.574203 171.958710,83.959747 171.898834,90.731949 
	C168.617477,90.862656 165.166031,90.601982 161.332397,89.732384 
	C161.198181,86.867416 161.286896,84.579811 161.726303,82.361694 
	C162.734863,77.270744 163.914383,72.213669 165.024490,67.142838 
	C167.644287,65.237602 170.264084,63.332363 173.225143,61.464958 
z"/>
<path fill="#E6B24E" opacity="1.000000" stroke="none" 
	d="
M164.709961,67.252197 
	C163.914383,72.213669 162.734863,77.270744 161.726303,82.361694 
	C161.286896,84.579811 161.198181,86.867416 160.952545,89.563705 
	C159.383713,89.694298 157.812515,89.384651 155.911545,89.010010 
	C156.870865,80.755455 159.245087,73.533195 164.709961,67.252197 
z"/>
<path fill="#FBE579" opacity="1.000000" stroke="none" 
	d="
M174.667572,61.057281 
	C174.853638,61.384262 174.633698,61.622623 174.103271,61.867435 
	C174.025391,61.642593 174.181656,61.340855 174.667572,61.057281 
z"/>
<path fill="#F3B444" opacity="1.000000" stroke="none" 
	d="
M257.887665,91.113281 
	C248.131149,90.649010 238.369370,90.262184 228.626114,89.602226 
	C227.637802,89.535278 226.065674,87.909035 225.936432,86.861778 
	C223.952759,70.787094 238.325165,57.557095 254.754486,61.056152 
	C255.528748,61.652695 255.810989,61.825684 256.093231,61.998676 
	C256.093231,61.998676 256.009949,61.975689 255.991364,62.361542 
	C256.541046,65.999992 257.439606,69.235748 257.606537,72.508820 
	C257.922272,78.698990 257.817627,84.910583 257.887665,91.113281 
z"/>
<path fill="#962017" opacity="1.000000" stroke="none" 
	d="
M236.928131,104.242523 
	C234.097244,101.089149 231.552444,98.168991 229.007645,95.248833 
	C229.314056,94.814751 229.620468,94.380669 229.926880,93.946587 
	C234.454712,94.283524 239.027359,93.892807 243.003036,97.428413 
	C246.777008,100.784653 251.775665,100.296906 255.876801,97.809242 
	C259.253601,95.760933 263.280609,94.784538 267.822083,93.021515 
	C265.808929,105.262230 249.630203,112.589493 236.928131,104.242523 
z"/>
<path fill="#FBE47A" opacity="1.000000" stroke="none" 
	d="
M258.335419,91.212753 
	C257.817627,84.910583 257.922272,78.698990 257.606537,72.508820 
	C257.439606,69.235748 256.541046,65.999992 256.005493,62.320717 
	C258.572144,63.107319 261.106110,64.320595 263.818909,66.216553 
	C265.975006,74.528053 267.952271,82.156876 269.929535,89.785706 
	C266.214081,90.294548 262.498627,90.803383 258.335419,91.212753 
z"/>
<path fill="#E4B04C" opacity="1.000000" stroke="none" 
	d="
M270.309448,89.830353 
	C267.952271,82.156876 265.975006,74.528053 263.995178,66.518417 
	C270.310852,71.459915 272.161255,78.961899 273.607544,86.540253 
	C273.778046,87.433647 271.716309,88.753075 270.309448,89.830353 
z"/>
<path fill="#FBE47A" opacity="1.000000" stroke="none" 
	d="
M255.991730,61.739731 
	C255.810989,61.825684 255.528748,61.652695 255.101807,61.274616 
	C255.268143,61.206612 255.579193,61.343697 255.991730,61.739731 
z"/>
</svg>